<?xml version="1.0" encoding="UTF-8"?>
<svg viewBox="0 0 44 29" version="1.1" xmlns="http://www.w3.org/2000/svg" xmlns:xlink="http://www.w3.org/1999/xlink">
    <!-- Generator: Sketch 57.1 (83088) - https://sketch.com -->
    <title>Group</title>
    <desc>Created with Sketch.</desc>
    <g id="Page-1" stroke="none" stroke-width="1" fill="none" fill-rule="evenodd">
        <g id="One-pager" transform="translate(-1025.000000, -1923.000000)" fill="#FFFFFF" fill-rule="nonzero">
            <g id="Group-15" transform="translate(2.000000, 1615.000000)">
                <g id="interactive-tools" transform="translate(428.000000, 232.000000)">
                    <g id="Group-30">
                        <g id="Group-5" transform="translate(567.000000, 50.000000)">
                            <g id="Group" transform="translate(28.113369, 26.623377)">
                                <path d="M12.5415711,6.16615894 C12.9945034,6.22759895 13.4378968,6.34565786 13.8613138,6.51755652 C13.8613138,6.44941478 13.8613138,6.38394527 13.8706832,6.31313131 C13.884068,6.04590882 13.8947758,5.77868633 13.9161915,5.51146384 C13.9161915,5.48741382 13.9161915,5.4633638 13.9228839,5.43931377 C13.9402842,5.34444979 13.9550075,5.24824969 13.9750847,5.15472182 C14.0117028,4.96974852 14.0613499,4.78758488 14.1236562,4.60958794 C14.131671,4.59856987 14.1388304,4.5869564 14.1450719,4.57484902 L14.1892418,4.54812677 L14.2079805,4.53743787 L14.3204129,4.50136283 C14.3726137,4.4866656 14.4248145,4.47464059 14.4770153,4.46395169 L14.5024464,4.46395169 C14.7433731,4.46395169 14.9856382,4.46395169 15.2265649,4.46395169 C17.3681352,4.48132115 19.5190749,4.45192667 21.6659991,4.48800171 C23.7219066,4.52274063 25.7764756,4.60023516 27.8297061,4.68574635 C29.8307359,4.76858532 31.8317656,4.85676875 33.8341339,4.90620491 C34.7108392,4.92891882 35.5902215,4.92090214 36.4669269,4.95831329 C36.6623451,4.96632997 36.856425,4.97835498 37.0505048,4.99973278 L37.1187673,5.00774945 L37.2004147,5.01977446 C37.2941084,5.03580781 37.3878021,5.05451339 37.4814958,5.0772273 C37.5457429,5.09459676 37.6086515,5.11864679 37.6715602,5.13735236 L37.7304533,5.17209128 L37.754546,5.20282187 C37.7496283,5.19506671 37.7451594,5.1870369 37.7411612,5.17877185 L37.751869,5.17877185 C37.7576528,5.18695523 37.7630136,5.19542833 37.7679308,5.20415798 L37.7799772,5.22286356 L37.7960389,5.23622468 L37.7813156,5.22553578 C37.7973774,5.25225803 37.8134392,5.27764417 37.8281625,5.30570253 C37.8428858,5.33376089 37.8509167,5.35380258 37.862963,5.3778526 L37.862963,5.3885415 C37.8897326,5.46603602 37.9124868,5.54486666 37.932564,5.62369729 C37.9526413,5.70252792 37.9700415,5.78937523 37.9847648,5.87355032 C37.9847648,5.9042809 37.9927957,5.93768372 37.9994881,5.96975041 C38.0061805,6.00181711 37.9994881,5.99914489 37.9994881,6.01517824 C38.0300634,6.34202536 38.0412371,6.67039216 38.0329501,6.998557 C38.0168884,7.91913847 37.9834263,8.83971995 37.9620106,9.76030143 C37.9173946,11.6094811 37.8852711,13.4582154 37.86564,15.3065042 C37.8477936,17.0051484 37.8433319,18.7037928 37.8522551,20.4024371 C37.8522551,20.8112875 37.8522551,21.2188018 37.8522551,21.6276522 C37.3837866,21.6276522 36.7988703,21.6129549 36.0091662,21.590241 C35.6820804,21.5800568 35.4241795,21.3089057 35.4309422,20.9823099 C35.4309422,20.8032708 35.4309422,20.6255678 35.4309422,20.4398482 C35.4192066,20.1262736 35.1668752,19.8749719 34.8527182,19.8639838 C33.9077503,19.8319171 30.4129753,19.7904976 29.422499,19.7904976 C29.1019691,19.7894897 28.8378511,20.0413437 28.8241978,20.3610176 C28.7983416,20.6845626 28.7894061,21.0092335 28.7974282,21.3337074 C28.8375826,21.9002191 28.6635801,21.7452301 28.0371707,21.7238523 C25.532872,21.6343327 20.5242744,21.8053551 18.0186372,21.7492384 L17.7241712,21.7412217 L17.7455869,21.7639357 C18.1912484,22.2925245 18.5417636,22.894217 18.7815716,23.5423013 C23.439487,23.6278125 28.0398477,23.6465181 33.028368,23.7654321 C36.3745716,23.8442627 39.3620622,23.8910267 42.6761423,23.6184597 C42.8846224,23.6016327 43.069254,23.4775814 43.1633495,23.2911122 C43.2996603,22.993319 43.3603431,22.6665792 43.3400291,22.3398001 C43.3210934,22.0424846 43.0837404,21.8055517 42.7858977,21.7866496 C42.3348295,21.755919 41.9506853,21.731869 41.6147265,21.7118273 C41.7039586,19.4217305 41.7731134,17.1316338 41.8221911,14.8415371 C41.874838,12.3367716 41.9011615,9.83200613 41.9011615,7.32724066 C41.9011615,6.70372151 41.9011615,6.08287461 41.9011615,5.46469991 C41.9011615,4.92090214 41.9105309,4.37309604 41.8717149,3.83063439 C41.7994369,2.80583614 41.5196943,1.73026562 40.5961421,1.14638448 C40.0888576,0.82438138 39.4704792,0.745550746 38.8828859,0.725509059 C38.2645074,0.69878681 37.6447905,0.68809791 37.0250736,0.669392336 L33.2532329,0.559831115 L25.7095515,0.338036449 C23.2507611,0.265886377 20.7933092,0.184383518 18.3345188,0.126930682 C17.1298855,0.0988723211 15.9252522,0.0841750842 14.7206189,0.100208434 C14.0995635,0.108225108 13.4785081,0.12025012 12.8574527,0.152316819 C12.3330896,0.177894309 11.8180088,0.300207683 11.3382763,0.51306718 C10.9072853,0.70413126 10.4803097,1.03548715 10.2768605,1.4710598 C10.0867961,1.87189354 10.0426263,2.33018011 9.98908699,2.76842499 C9.86996215,3.73042595 9.83382315,4.70445193 9.80437655,5.67313345 C9.80437655,5.8067447 9.80437655,5.95505318 9.79500718,6.09534498 C10.1347734,6.06074635 10.4760775,6.04335459 10.817607,6.0432366 C10.9206701,6.0432366 11.0264101,6.0432366 11.1321501,6.0432366 L12.5415711,6.16615894 Z M14.2227038,4.52674897 L14.2467965,4.51606007 C14.2467965,4.51606007 14.2374271,4.52274063 14.2227038,4.52674897 L14.2227038,4.52674897 Z" id="Shape"></path>
                                <path d="M17.8004647,26.318743 C17.7817259,26.1557373 17.7683411,25.9887232 17.7549563,25.8190369 C17.7281867,25.4796644 17.704094,25.1282668 17.6572472,24.7768692 C17.6478778,24.7020469 17.6358315,24.6285607 17.6237851,24.5550746 C17.6117388,24.4815884 17.5916616,24.3720271 17.5715844,24.2798354 C17.5715844,24.2691465 17.5715844,24.2584576 17.5715844,24.2477687 C17.5501687,24.1529047 17.5274145,24.0567046 17.5006448,23.9605045 C17.4217855,23.6635057 17.3197491,23.373127 17.1954711,23.0920314 C17.0364726,22.7201867 16.8231187,22.3739312 16.5623693,22.064561 C16.4914915,21.9844279 16.4150059,21.9094172 16.333489,21.8400941 C16.2518963,21.7715348 16.166064,21.708167 16.0765006,21.6503661 C15.9560563,21.5731638 15.8303824,21.504411 15.7003873,21.4446048 L15.5036305,21.3617658 C15.09072,21.2140572 14.6623365,21.1136504 14.2267192,21.0624766 C14.0928711,21.0451072 13.9590229,21.0277377 13.8251748,21.0050238 L13.7769895,20.9970071 C13.700696,20.9849821 13.6244026,20.9702849 13.5481091,20.9542515 L13.4972469,20.9422265 C13.3955223,20.9195126 11.901777,20.7992625 11.8040678,20.7671958 C11.7482041,20.749954 11.6932554,20.7298864 11.6394346,20.7070707 C11.5805414,20.6830207 11.5216482,20.6576345 11.4667705,20.6295762 C11.2701812,20.5317061 11.103363,20.3831731 10.9835787,20.199348 C10.9592783,20.1613318 10.937805,20.1215872 10.9193316,20.080434 C10.7158824,19.640853 10.8617769,19.1371386 11.1535658,18.7336326 C11.2016588,18.6662736 11.2539636,18.6020125 11.3101682,18.5412324 C11.3652424,18.4808781 11.4237884,18.423774 11.4855092,18.37021 C11.7596184,18.1472489 12.0524942,17.9483208 12.3608761,17.77564 C12.6146519,17.6303658 12.8575526,17.4669324 13.0876715,17.2866228 C13.4587144,16.9824038 13.7626767,16.6048292 13.9804387,16.1776495 C14.0045313,16.1308856 14.028624,16.0841216 14.0513782,16.0360216 C14.119859,15.8911861 14.1801845,15.7426463 14.2320732,15.5910961 C14.3032039,15.3860736 14.36132,15.1767798 14.4060757,14.9644594 C14.4288299,14.8575704 14.4489072,14.7506814 14.4663074,14.6411202 C14.5708336,13.928127 14.5825307,13.204632 14.5011079,12.488643 C14.4622878,12.1197757 14.404208,11.7531823 14.3271053,11.3903586 C14.0942096,10.2987547 13.6578646,9.2525787 12.9002841,8.45091123 C12.8078508,8.35330247 12.7099868,8.26096467 12.6071567,8.17433595 C12.5562944,8.13158035 12.5027551,8.09016087 12.4492159,8.05141361 C12.3956766,8.01266635 12.3381219,7.9752552 12.2805672,7.94051627 C11.9926761,7.77504031 11.679205,7.65854334 11.3529996,7.59579926 C11.2686753,7.5784298 11.1843509,7.56239645 11.1000266,7.54903533 C10.9661784,7.52632142 10.8216224,7.50895195 10.6837589,7.49425472 C10.5900652,7.48356582 10.495033,7.47421303 10.4013393,7.46753247 L10.3076456,7.46753247 L10.1162427,7.45417134 L10.0038103,7.45417134 L9.8298077,7.45417134 L9.44566353,7.45417134 L9.24890676,7.45417134 L9.16993635,7.45417134 C9.0802581,7.45417134 8.99057984,7.46486024 8.90224006,7.47287692 L8.87145499,7.47287692 C8.7911461,7.47287692 8.7121757,7.48757415 8.63320529,7.49826305 L8.54888096,7.50895195 C8.48552618,7.51696863 8.42261755,7.52632142 8.36015508,7.53701031 L8.27449227,7.55037144 L8.05364283,7.59446315 L8.01081142,7.60247982 C7.92514861,7.6211854 7.8394858,7.6425632 7.75382299,7.66527711 L7.68154499,7.68665491 C7.61863636,7.70402437 7.55706622,7.72139383 7.49683455,7.74143552 L7.41251022,7.76949388 C7.34960159,7.78953557 7.28803145,7.81224948 7.2264613,7.8362995 L7.16087571,7.86034953 C7.08056682,7.89375234 6.99891945,7.92715515 6.91994905,7.9645663 L6.87042524,7.98861632 C6.80751661,8.0180108 6.74460798,8.05007749 6.68303783,8.08348031 L6.60674439,8.12489979 C6.55186665,8.15563038 6.4983274,8.18769708 6.44344966,8.22109989 L6.3751871,8.26385549 C6.30023214,8.31195553 6.22661566,8.36139169 6.15433767,8.41483619 L6.15433767,8.41483619 C5.4610651,8.94032275 4.92543288,9.64553286 4.60571464,10.4537438 C4.36597838,11.0404762 4.20573161,11.6565141 4.12921525,12.285554 C4.06540571,12.7897153 4.04480762,13.2983923 4.0676451,13.8060499 C4.07974244,14.1134926 4.10968544,14.4199765 4.15732336,14.7239592 C4.20465784,15.0305827 4.27262807,15.3336755 4.36077253,15.6311795 C4.39021913,15.7287157 4.4210042,15.8262519 4.45580472,15.922452 C4.76365545,16.7882529 5.27361688,17.5511731 6.06198245,18.0201486 C6.15835311,18.0776014 6.26141618,18.132382 6.36447925,18.1871626 C6.571615,18.2898109 6.77231089,18.4049288 6.96545742,18.5318796 C7.02635162,18.5731222 7.08488988,18.6177287 7.14079849,18.6654909 C7.19480546,18.7135865 7.24493067,18.7658568 7.29070841,18.821816 C7.33667126,18.8780628 7.37659792,18.9389664 7.40983326,19.0035273 C7.42740356,19.0362517 7.44261165,19.070186 7.45534163,19.1050719 C7.5056887,19.2365697 7.52625776,19.3775605 7.51557329,19.5179306 C7.48610275,19.8070497 7.36622192,20.0795765 7.17292204,20.2968842 C7.07757363,20.408094 6.96773411,20.5060557 6.84633257,20.5881567 C6.36581773,20.9114959 5.77554742,21.0103682 5.20936977,21.1306184 C4.96442766,21.1840629 3.73704018,21.4659826 3.48942112,21.5314521 C3.24180205,21.5969216 3.00622932,21.6650633 2.76664114,21.7372134 C2.68633225,21.7625995 2.60468488,21.7879857 2.52303752,21.816044 C1.9541829,22.0071081 1.39469766,22.26765 1.03196919,22.7366255 C0.960426252,22.830966 0.896853117,22.9310729 0.841904826,23.0359147 C0.7856615,23.1451658 0.736917799,23.2581046 0.696010349,23.3739512 C0.673256165,23.4741596 0.651840462,23.5716958 0.634440203,23.6638876 C0.583577908,23.9217573 0.516653836,24.1742825 0.444375838,24.441505 C0.385482655,24.6566191 0.326589472,24.8784138 0.275727177,25.1095612 L0.256988437,25.1095612 C0.145731098,25.4792697 0.0796660176,25.8610511 0.0602316648,26.2465929 C0.0573501409,26.3761084 0.0645100695,26.5056526 0.0816473679,26.6340655 C0.109193036,26.833762 0.163672364,27.0288213 0.243603622,27.2139383 C0.258669092,27.2478303 0.275650529,27.2808409 0.294465917,27.3128106 L0.314543139,27.3435412 C0.326589472,27.3635829 0.339974286,27.3836246 0.3533591,27.4036663 L0.380128729,27.435733 C0.39236335,27.4531105 0.405779768,27.469628 0.420283172,27.4851692 L0.451068246,27.5172359 L0.493899652,27.5586553 L0.528700169,27.5880498 L0.572870057,27.6241248 L0.611686019,27.6508471 C0.627747796,27.661536 0.642471092,27.6722249 0.65987135,27.6815777 L0.700025794,27.7056277 L0.750888088,27.73235 L0.768288347,27.7403666 L1.0962163,27.7978195 L1.18589456,27.8125167 L1.3197427,27.8338945 L1.46296021,27.8552723 L1.56334632,27.8686334 C1.64633217,27.8793223 1.73199498,27.8900112 1.8176578,27.8966918 C2.55114563,27.9634974 3.27794105,28.065042 4.00875192,28.1385281 C4.09575321,28.1465448 4.18543147,28.1545615 4.2764482,28.1599059 L4.37281887,28.1599059 L4.56422171,28.1692587 L4.68334656,28.1692587 L4.86939548,28.1692587 L5.30440195,28.1692587 L5.56005191,28.1692587 L5.62162205,28.1692587 C5.72870057,28.1692587 5.83711756,28.1692587 5.94553456,28.1599059 L6.04324371,28.1599059 L6.2814934,28.1505532 L6.39927977,28.1505532 L6.63351402,28.1398643 L6.73791557,28.1398643 L7.06316656,28.1238309 L7.13812152,28.1238309 L7.40581781,28.1091337 L7.70697614,28.0931003 L7.8180701,28.0931003 L8.08576638,28.0784031 L8.15001349,28.0784031 L8.45920271,28.0623697 L8.52746526,28.0623697 L8.75634559,28.0530169 L8.85003929,28.0530169 L9.04947302,28.0530169 L9.13379735,28.0530169 L9.40149364,28.0530169 L9.42157086,28.0530169 L10.0734113,28.0169419 L10.0734113,28.0169419 C10.1001613,28.0260923 10.1274234,28.0336764 10.1550587,28.0396558 C10.4803097,28.0316391 10.9153162,28.0262947 11.3998464,28.0209502 L11.7237589,28.0209502 L11.7237589,28.0209502 C12.8922532,28.0035808 14.245458,27.9715141 14.9936691,27.8552723 C15.3443512,27.8018278 15.688341,27.7350222 16.0296537,27.6548554 L16.0296537,27.6548554 C16.155471,27.625461 16.2799498,27.5933943 16.4044285,27.5613276 L16.4860759,27.5386136 C16.6292934,27.4998664 16.7738494,27.4571108 16.9170669,27.4130191 L16.9237593,27.4130191 L16.9237593,27.4130191 C17.0000528,27.3889691 17.0763462,27.364919 17.1526397,27.3381968 L17.4859215,27.2326439 C17.5695516,27.1699562 17.6388966,27.0902593 17.6893707,26.9988242 C17.8012754,26.7908184 17.8403755,26.5514608 17.8004647,26.318743 Z" id="Path"></path>
                            </g>
                        </g>
                    </g>
                </g>
            </g>
        </g>
    </g>
</svg>